# Blender v2.78 (sub 0) OBJ File: ''
# www.blender.org
mtllib gem.mtl
o diamond
v 0.000292 1.774369 0.382409
v 0.270686 1.774369 0.270408
v 0.382687 1.774369 0.000014
v 0.270686 1.774369 -0.270380
v 0.000291 1.774369 -0.382381
v -0.270102 1.774369 -0.270380
v -0.382103 1.774369 0.000014
v -0.270102 1.774369 0.270408
v 0.191490 1.715629 0.461605
v 0.461884 1.715629 0.191211
v 0.517209 1.519372 0.516931
v 0.238083 1.519372 0.683745
v 0.259750 1.476044 0.626398
v 0.315620 1.519372 0.651628
v 0.266763 1.548810 0.643329
v 0.349010 1.230520 0.144458
v 0.144736 1.230520 0.348732
v 0.000292 0.922168 0.000014
v 0.461883 1.715629 -0.191184
v 0.731323 1.519372 0.000014
v 0.643608 1.548810 0.266484
v 0.651907 1.519372 0.315342
v 0.626677 1.476044 0.259471
v 0.684024 1.519372 0.237804
v 0.349010 1.230520 -0.144430
v 0.191489 1.715629 -0.461578
v 0.517209 1.519372 -0.516903
v 0.643607 1.548810 -0.266457
v 0.684023 1.519372 -0.237777
v 0.626676 1.476044 -0.259443
v 0.651906 1.519372 -0.315314
v 0.144736 1.230520 -0.348704
v -0.190906 1.715629 -0.461578
v 0.000292 1.519372 -0.731017
v 0.266762 1.548810 -0.643302
v 0.315620 1.519372 -0.651601
v 0.259749 1.476044 -0.626371
v 0.238082 1.519372 -0.683718
v -0.144152 1.230520 -0.348704
v -0.461300 1.715629 -0.191184
v -0.516625 1.519372 -0.516903
v -0.266179 1.548810 -0.643301
v -0.237499 1.519372 -0.683717
v -0.259165 1.476044 -0.626370
v -0.315036 1.519372 -0.651600
v -0.348426 1.230520 -0.144430
v -0.461300 1.715629 0.191211
v -0.730739 1.519372 0.000014
v -0.348426 1.230520 0.144458
v -0.643024 1.548810 -0.266456
v -0.651323 1.519372 -0.315314
v -0.626093 1.476044 -0.259443
v -0.683440 1.519372 -0.237776
v -0.190905 1.715629 0.461606
v 0.000292 1.519372 0.731045
v -0.266178 1.548810 0.643329
v -0.315036 1.519372 0.651628
v -0.259165 1.476044 0.626398
v -0.237498 1.519372 0.683745
v -0.144152 1.230520 0.348732
v -0.516625 1.519372 0.516931
v -0.643023 1.548810 0.266484
v -0.683439 1.519372 0.237804
v -0.626092 1.476044 0.259471
v -0.651322 1.519372 0.315342
vt 0.3363 0.4715
vt 0.2144 0.4469
vt 0.1453 0.3418
vt 0.1695 0.2179
vt 0.2729 0.1477
vt 0.3949 0.1723
vt 0.4640 0.2774
vt 0.4397 0.4013
vt 0.2632 0.5212
vt 0.1281 0.4295
vt 0.1321 0.5721
vt 0.9486 0.9369
vt 0.9628 0.9169
vt 0.9723 0.9476
vt 0.9479 0.9455
vt 0.2449 0.7526
vt 0.0591 0.7990
vt 0.1624 0.6728
vt 0.3468 0.6192
vt 0.0964 0.2675
vt 0.0000 0.3712
vt 0.1442 0.8845
vt 0.1359 0.8659
vt 0.1638 0.8589
vt 0.1641 0.8881
vt 0.3415 0.8141
vt 0.2469 0.9471
vt 0.1867 0.1302
vt 0.0464 0.1342
vt 0.3225 0.9979
vt 0.3231 0.9892
vt 0.3373 0.9693
vt 0.3468 1.0000
vt 0.8080 0.1504
vt 0.6866 0.0386
vt 0.8841 0.0846
vt 1.0000 0.1821
vt 0.3461 0.0980
vt 0.2440 0.0000
vt 0.6350 0.1329
vt 0.6369 0.1083
vt 0.6551 0.1251
vt 0.6253 0.1366
vt 0.8104 0.2641
vt 0.6093 0.2268
vt 0.4811 0.1897
vt 0.4772 0.0471
vt 0.6394 0.3428
vt 0.6293 0.3238
vt 0.6594 0.3294
vt 0.6422 0.3566
vt 0.8899 0.3591
vt 0.6951 0.4456
vt 0.5128 0.3517
vt 0.6093 0.2480
vt 1.0000 0.3798
vt 0.8939 0.5668
vt 0.7861 0.5180
vt 0.7731 0.5130
vt 0.8023 0.5001
vt 0.8029 0.5312
vt 0.4226 0.4890
vt 0.3652 0.6192
vt 0.7696 0.8322
vt 0.7613 0.8135
vt 0.7892 0.8066
vt 0.7895 0.8357
vt 0.9670 0.7617
vt 0.8723 0.8947
vt 0.8703 0.7003
vt 0.9723 0.5668
vt 0.5629 0.4850
vt 0.6174 0.6848
vt 0.6093 0.6614
vt 0.6409 0.6631
vt 0.6254 0.6820
vt 0.6845 0.7466
vt 0.7878 0.6204
vt 0.5948 0.3683
vt 0.6023 0.3883
vt 0.6093 0.3527
vt 1.0000 0.5372
vt 0.9841 0.5652
vt 0.5506 0.1426
vt 0.5699 0.1513
vt 0.5500 0.1212
vt 0.3624 0.0147
vt 0.3820 0.0071
vt 0.3471 0.0000
vt 0.1403 0.0596
vt 0.1489 0.0401
vt 0.1192 0.0602
vt 0.0145 0.2509
vt 0.0070 0.2309
vt 0.0000 0.2665
vt 0.7623 0.0000
vt 0.7919 0.0069
vt 0.0586 0.4766
vt 0.0394 0.4679
vt 0.0592 0.4980
vt 0.2469 0.6045
vt 0.2272 0.6121
vt 0.2622 0.6192
vt 0.0000 0.7344
vt 0.0155 0.7154
vt 0.4690 0.5596
vt 0.4604 0.5791
vt 0.4901 0.5590
vn 0.0000 1.0000 -0.0000
vn 0.1426 0.9280 0.3442
vn 0.3442 0.9280 0.1426
vn 0.4174 0.8071 0.4174
vn 0.3711 -0.2442 0.8959
vn 0.4474 -0.7744 0.4474
vn 0.3442 0.9280 -0.1426
vn 0.5904 0.8071 -0.0000
vn 0.8959 -0.2442 0.3711
vn 0.6327 -0.7744 0.0000
vn 0.1426 0.9280 -0.3442
vn 0.4174 0.8071 -0.4174
vn 0.8959 -0.2442 -0.3711
vn 0.4474 -0.7744 -0.4474
vn -0.1426 0.9280 -0.3442
vn 0.0000 0.8071 -0.5904
vn 0.3711 -0.2442 -0.8959
vn 0.0000 -0.7744 -0.6327
vn -0.3442 0.9280 -0.1426
vn -0.4174 0.8071 -0.4174
vn -0.3711 -0.2442 -0.8959
vn -0.4474 -0.7744 -0.4474
vn -0.3442 0.9280 0.1426
vn -0.5904 0.8071 0.0000
vn -0.6327 -0.7744 0.0000
vn -0.8959 -0.2442 -0.3711
vn -0.1426 0.9280 0.3442
vn 0.0000 0.8071 0.5904
vn -0.3711 -0.2442 0.8959
vn -0.0000 -0.7744 0.6327
vn -0.4174 0.8071 0.4174
vn -0.8959 -0.2442 0.3711
vn -0.4474 -0.7744 0.4474
vn -0.5439 0.7564 0.3634
vn -0.6415 0.7564 0.1276
vn -0.6277 -0.7684 0.1249
vn -0.5321 -0.7684 0.3556
vn -0.6415 0.7564 -0.1276
vn -0.5439 0.7564 -0.3634
vn -0.5321 -0.7684 -0.3556
vn -0.6277 -0.7684 -0.1249
vn -0.3634 0.7564 -0.5439
vn -0.1276 0.7564 -0.6415
vn -0.1249 -0.7684 -0.6277
vn -0.3556 -0.7684 -0.5321
vn 0.1276 0.7564 -0.6415
vn 0.3634 0.7564 -0.5439
vn 0.3556 -0.7684 -0.5321
vn 0.1249 -0.7684 -0.6277
vn 0.5439 0.7564 -0.3634
vn 0.6415 0.7564 -0.1276
vn 0.6277 -0.7684 -0.1249
vn 0.5321 -0.7684 -0.3556
vn 0.6415 0.7564 0.1276
vn 0.5439 0.7564 0.3634
vn 0.5321 -0.7684 0.3556
vn 0.6277 -0.7684 0.1249
vn 0.3634 0.7564 0.5439
vn 0.1276 0.7564 0.6415
vn 0.1249 -0.7684 0.6277
vn 0.3556 -0.7684 0.5321
vn -0.1276 0.7564 0.6415
vn -0.3634 0.7564 0.5439
vn -0.3556 -0.7684 0.5321
vn -0.1249 -0.7684 0.6277
usemtl Material.001
s off
f 1/1/1 2/2/1 3/3/1 4/4/1 5/5/1 6/6/1 7/7/1 8/8/1
f 2/2/2 1/1/2 9/9/2
f 2/2/3 10/10/3 3/3/3
f 10/10/4 2/2/4 9/9/4 11/11/4
f 12/12/5 13/13/5 14/14/5 15/15/5
f 16/16/6 11/17/6 17/18/6 18/19/6
f 19/20/7 4/4/7 3/3/7
f 10/10/8 20/21/8 19/20/8 3/3/8
f 21/22/9 22/23/9 23/24/9 24/25/9
f 25/26/10 20/27/10 16/16/10 18/19/10
f 5/5/11 4/4/11 26/28/11
f 26/28/12 4/4/12 19/20/12 27/29/12
f 28/30/13 29/31/13 30/32/13 31/33/13
f 32/34/14 27/35/14 25/36/14 18/37/14
f 5/5/15 33/38/15 6/6/15
f 33/38/16 5/5/16 26/28/16 34/39/16
f 35/40/17 36/41/17 37/42/17 38/43/17
f 39/44/18 34/45/18 32/34/18 18/37/18
f 40/46/19 7/7/19 6/6/19
f 33/38/20 41/47/20 40/46/20 6/6/20
f 42/48/21 43/49/21 44/50/21 45/51/21
f 46/52/22 41/53/22 39/44/22 18/37/22
f 8/8/23 7/7/23 47/54/23
f 47/54/24 7/7/24 40/46/24 48/55/24
f 49/56/25 48/57/25 46/52/25 18/37/25
f 50/58/26 51/59/26 52/60/26 53/61/26
f 54/62/27 1/1/27 8/8/27
f 9/9/28 1/1/28 54/62/28 55/63/28
f 56/64/29 57/65/29 58/66/29 59/67/29
f 17/68/30 55/69/30 60/70/30 18/71/30
f 47/54/31 61/72/31 54/62/31 8/8/31
f 62/73/32 63/74/32 64/75/32 65/76/32
f 60/70/33 61/77/33 49/78/33 18/71/33
f 47/54/34 62/79/34 65/80/34 61/72/34
f 63/81/35 62/79/35 47/54/35 48/55/35
f 48/57/36 49/56/36 64/82/36 63/83/36
f 49/78/37 61/77/37 65/76/37 64/75/37
f 40/46/38 50/84/38 53/85/38 48/55/38
f 51/86/39 50/84/39 40/46/39 41/47/39
f 41/53/40 46/52/40 52/60/40 51/59/40
f 46/52/41 48/57/41 53/61/41 52/60/41
f 33/38/42 42/87/42 45/88/42 41/47/42
f 43/89/43 42/87/43 33/38/43 34/39/43
f 34/45/44 39/44/44 44/50/44 43/49/44
f 39/44/45 41/53/45 45/51/45 44/50/45
f 26/28/46 35/90/46 38/91/46 34/39/46
f 36/92/47 35/90/47 26/28/47 27/29/47
f 27/35/48 32/34/48 37/42/48 36/41/48
f 32/34/49 34/45/49 38/43/49 37/42/49
f 19/20/50 28/93/50 31/94/50 27/29/50
f 29/95/51 28/93/51 19/20/51 20/21/51
f 20/27/52 25/26/52 30/32/52 29/31/52
f 25/36/53 27/35/53 31/96/53 30/97/53
f 10/10/54 21/98/54 24/99/54 20/21/54
f 22/100/55 21/98/55 10/10/55 11/11/55
f 11/17/56 16/16/56 23/24/56 22/23/56
f 16/16/57 20/27/57 24/25/57 23/24/57
f 9/9/58 15/101/58 14/102/58 11/11/58
f 12/103/59 15/101/59 9/9/59 55/63/59
f 55/69/60 17/68/60 13/13/60 12/12/60
f 17/18/61 11/17/61 14/104/61 13/105/61
f 54/62/62 56/106/62 59/107/62 55/63/62
f 57/108/63 56/106/63 54/62/63 61/72/63
f 61/77/64 60/70/64 58/66/64 57/65/64
f 60/70/65 55/69/65 59/67/65 58/66/65
